<?xml version="1.0" encoding="UTF-8"?>
<svg id="Layer_1" xmlns="http://www.w3.org/2000/svg" version="1.1" viewBox="0 0 315 171">
  <!-- Generator: Adobe Illustrator 29.7.1, SVG Export Plug-In . SVG Version: 2.1.1 Build 8)  -->
  <defs>
    <style>
      .st0 {
        fill: #fe0002;
      }
    </style>
  </defs>
  <rect x="237.2" y="108.1" width="1.7" height="1.7"/>
  <path d="M241.1,109.5c-.3-.2-.5-.4-.7-.7-.2-.3-.3-.6-.3-.9v-4c0-.3,0-.6.3-.9.2-.3.4-.5.7-.7.3-.2.6-.3.9-.3h5.9v1.7h-5.9s0,0-.1,0c0,0,0,0,0,.1v3.9s0,0,0,.1,0,0,.1,0h5.9v1.7h-6c-.3,0-.6,0-.9-.3"/>
  <path d="M251.1,108.1h4s0,0,.1,0,0,0,0-.1v-3.9s0,0,0-.1c0,0,0,0-.1,0h-4s0,0-.1,0c0,0,0,0,0,.1v3.9s0,0,0,.1,0,0,.1,0M250.2,109.5c-.3-.2-.5-.4-.7-.7-.2-.3-.3-.6-.3-.9v-4c0-.3,0-.6.3-.9.2-.3.4-.5.7-.7.3-.2.6-.3.9-.3h4.1c.3,0,.6,0,.9.2.3.2.5.4.7.7.2.3.2.6.2.9v4c0,.3,0,.6-.2.9-.2.3-.4.5-.7.7-.3.2-.6.3-.9.3h-4.1c-.3,0-.6,0-.9-.3"/>
  <path d="M258.4,109.8v-7.7h9.5c.3,0,.7,0,.9.3.3.2.5.4.7.7.2.3.2.6.2.9v5.8h-1.7v-5.8s0,0,0-.1c0,0,0,0-.1,0h-2.7s0,0-.1,0c0,0,0,0,0,.1v5.8h-1.7v-5.8s0,0,0-.1,0,0-.1,0h-2.7s0,0-.1,0,0,0,0,.1v5.8h-1.7Z"/>
  <rect x="271.3" y="108.1" width="1.7" height="1.7"/>
  <path d="M276.2,108.1h4.2v-1.4h-4.3v1.3s0,0,0,.1c0,0,0,0,.1,0M276.1,109.8c-.3,0-.6,0-.9-.3s-.5-.4-.7-.7c-.2-.3-.2-.6-.2-.9v-2.9h6v-1.1s0,0,0-.1,0,0-.1,0h-5.9v-1.7h6c.3,0,.6,0,.9.2.3.2.5.4.7.7.2.3.2.6.2.9v5.8h-6Z"/>
  <path d="M284.4,109.5c-.3-.2-.5-.4-.7-.7-.2-.3-.2-.6-.2-.9v-5.8h1.7v5.8s0,0,0,.1c0,0,0,0,.1,0h4s0,0,.1,0,0,0,0-.1v-5.8h1.7v5.8c0,.3,0,.6-.2.9-.2.3-.4.5-.7.7-.3.2-.6.3-.9.3h-4.1c-.3,0-.6,0-.9-.3"/>
  <path d="M95,81.7h14.6v-4.2c0,0,0-.1,0-.2,0,0-.1,0-.2,0h-14.1c0,0-.1,0-.2,0,0,0,0,.1,0,.2v4.2ZM91.5,97.4c-1-.6-1.9-1.5-2.5-2.5-.6-1-.9-2.2-.9-3.4v-14.4c0-1.2.3-2.3.9-3.4.6-1,1.5-1.9,2.5-2.5,1-.6,2.2-.9,3.4-.9h14.7c1.3,0,2.4.3,3.4.9,1,.6,1.8,1.5,2.5,2.5.6,1,.9,2.2.9,3.4v10.6h-21.5v3.4c0,0,0,.1,0,.2,0,0,.1,0,.2,0h21.2v6.8h-21.5c-1.2,0-2.3-.3-3.4-.9"/>
  <path d="M127.3,91.5h14.1c0,0,.1,0,.2,0,0,0,0-.1,0-.2v-13.7c0,0,0-.1,0-.2,0,0-.1,0-.2,0h-14.1c0,0-.1,0-.2,0,0,0,0,.1,0,.2v13.7c0,0,0,.1,0,.2,0,0,.1,0,.2,0M123.5,97.4c-1-.6-1.8-1.5-2.5-2.5-.6-1-.9-2.2-.9-3.4v-14.4c0-1.2.3-2.3.9-3.4.6-1,1.4-1.9,2.5-2.5,1-.6,2.2-.9,3.5-.9h14.7v-9.2h6.8v37.1h-21.5c-1.3,0-2.4-.3-3.5-.9"/>
  <path d="M153.6,70.4h6.8v27.9h-6.8v-27.9ZM153.6,61.2h6.8v6.9h-6.8v-6.9Z"/>
  <path d="M169.4,97.4c-1-.6-1.9-1.5-2.5-2.5-.6-1-.9-2.2-.9-3.4v-1.3h6.8v.9c0,0,0,.1,0,.2,0,0,.1,0,.2,0h14.1c0,0,.1,0,.2,0,0,0,0-.1,0-.2v-3.1c0,0,0-.1,0-.2,0,0-.1,0-.2,0h-14.4c-1.2,0-2.3-.3-3.4-.9-1-.6-1.9-1.5-2.5-2.5-.6-1-.9-2.2-.9-3.4v-3.8c0-1.2.3-2.3.9-3.4.6-1,1.5-1.9,2.5-2.5,1-.6,2.2-.9,3.4-.9h14.7c1.3,0,2.4.3,3.4.9,1,.6,1.9,1.5,2.5,2.5.6,1,.9,2.2.9,3.4v1.3h-6.9v-.9c0,0,0-.1,0-.2,0,0-.1,0-.2,0h-14.1c0,0-.1,0-.2,0,0,0,0,.1,0,.2v3.1c0,0,0,.1,0,.2,0,0,.1,0,.2,0h14.4c1.3,0,2.4.3,3.4.9,1,.6,1.9,1.5,2.5,2.5.6,1,.9,2.2.9,3.4v3.8c0,1.2-.3,2.3-.9,3.4-.6,1-1.5,1.9-2.5,2.5-1,.6-2.2.9-3.4.9h-14.7c-1.2,0-2.3-.3-3.4-.9"/>
  <path d="M205.4,91.5h14.1c0,0,.1,0,.2,0,0,0,0-.1,0-.2v-13.7c0,0,0-.1,0-.2,0,0-.1,0-.2,0h-14.1c0,0-.1,0-.2,0,0,0,0,.1,0,.2v13.7c0,0,0,.1,0,.2,0,0,.1,0,.2,0M201.7,97.4c-1-.6-1.9-1.5-2.5-2.5-.6-1-.9-2.2-.9-3.4v-14.4c0-1.2.3-2.3.9-3.4.6-1,1.5-1.9,2.5-2.5,1-.6,2.2-.9,3.4-.9h14.7c1.3,0,2.4.3,3.4.9s1.8,1.5,2.5,2.5c.6,1,.9,2.2.9,3.4v14.4c0,1.2-.3,2.3-.9,3.4-.6,1-1.4,1.9-2.5,2.5-1,.6-2.2.9-3.4.9h-14.7c-1.2,0-2.3-.3-3.4-.9"/>
  <path d="M230.5,98.3v-27.9h21.5c1.3,0,2.4.3,3.4.9,1,.6,1.8,1.5,2.5,2.5.6,1,.9,2.2.9,3.4v21.1h-6.8v-20.8c0,0,0-.1,0-.2,0,0-.1,0-.2,0h-14.1c0,0-.1,0-.2,0,0,0,0,.1,0,.2v20.8h-6.8Z"/>
  <path d="M266.3,97.4c-1-.6-1.9-1.5-2.5-2.5-.6-1-.9-2.2-.9-3.4v-1.3h6.8v.9c0,0,0,.1,0,.2,0,0,.1,0,.2,0h14.1c0,0,.1,0,.2,0,0,0,0-.1,0-.2v-3.1c0,0,0-.1,0-.2,0,0-.1,0-.2,0h-14.4c-1.2,0-2.3-.3-3.4-.9-1-.6-1.9-1.5-2.5-2.5-.6-1-.9-2.2-.9-3.4v-3.8c0-1.2.3-2.3.9-3.4.6-1,1.5-1.9,2.5-2.5,1-.6,2.2-.9,3.4-.9h14.7c1.3,0,2.4.3,3.4.9,1,.6,1.9,1.5,2.5,2.5.6,1,.9,2.2.9,3.4v1.3h-6.9v-.9c0,0,0-.1,0-.2,0,0-.1,0-.2,0h-14.1c0,0-.1,0-.2,0,0,0,0,.1,0,.2v3.1c0,0,0,.1,0,.2,0,0,.1,0,.2,0h14.4c1.3,0,2.4.3,3.4.9,1,.6,1.9,1.5,2.5,2.5.6,1,.9,2.2.9,3.4v3.8c0,1.2-.3,2.3-.9,3.4-.6,1-1.5,1.9-2.5,2.5-1,.6-2.2.9-3.4.9h-14.7c-1.2,0-2.3-.3-3.4-.9"/>
  <polygon class="st0" points="60.3 100.3 43.2 100.3 37.4 90.2 54.1 90.2 56.8 85.5 54.1 80.8 37.4 80.8 43.2 70.7 60.3 70.7 66.1 80.8 77.1 80.8 65.8 61.2 37.8 61.2 23.7 85.5 37.8 109.8 65.8 109.8 77.1 90.2 66.1 90.2 60.3 100.3"/>
</svg>