<?xml version="1.0" encoding="UTF-8"?>
<svg id="Layer_1" xmlns="http://www.w3.org/2000/svg" version="1.1" viewBox="0 0 315 171">
  <!-- Generator: Adobe Illustrator 29.7.1, SVG Export Plug-In . SVG Version: 2.1.1 Build 8)  -->
  <defs>
    <style>
      .st0 {
        fill: #fff;
      }

      .st1 {
        fill: #faa830;
      }
    </style>
  </defs>
  <path class="st1" d="M140.8,78.4c-.3-4-.3-8.1-.7-12.1-.4-3.3-1.1-6.4-2.6-9.4-2.3-4.4-6.3-7.9-11-9.5-5.5-1.9-11.7-1.3-16.7,1.7-2.4,1.8-4.8,3.7-7.1,5.6-.2-.2-.3-.4-.5-.6-5.6-5.6-11.7-9.4-20.1-7.2-5.7,1.5-10.5,5.1-14.8,9.1-13.4,12.4-25.6,26-35.9,41.1-2.1,3.1-4.2,6.3-5.2,9.9-1.7,5.7-.6,12,2.7,16.9,8.1,11.6,26.6,10.8,33.7-1.3,1.2-2,2.4-4.3,4-5.9-.9,1,7.7,5.6,8.6,5.9,3.3,1.1,6.9,1.1,10.2.5,7.8-1.5,11.9-6.9,16.9-12.4.3,1,.7,2,1.2,3,5.6,10.7,18.4,16.3,29.4,8.8,6-4.1,8.9-11.1,8.9-18.2s-.3-17.2-.9-25.8Z"/>
  <path class="st0" d="M144.6,62.4h4.3c.5,0,.9.4.9.9v8.4h15.7v5.4h-15.7v14.9c0,4,2.1,6,5.6,6s5.3-2.4,5.4-6.2c0-.5.4-.9,1-.9l4.1.4c.5,0,.8.4.8.9,0,7.1-4.8,11.4-11,11.4s-11.9-4.4-11.9-11.8v-28.5c0-.5.4-.9.9-.9"/>
  <path class="st0" d="M186.2,97.7c5.8,0,9.9-4.4,9.9-10.5s-4.1-10.7-9.9-10.7-10,4.6-10,10.7,4.2,10.5,10,10.5M186.2,70.7c9.5,0,15.9,7.3,15.9,16.5s-6.4,16.4-15.9,16.4-16.1-7.1-16.1-16.4,6.6-16.5,16.1-16.5"/>
  <path class="st0" d="M223.8,97.7c5.7,0,9.7-4.5,9.7-10.6s-3.9-10.6-9.7-10.6-9.6,4.4-9.6,10.6,4,10.6,9.6,10.6M214.3,72.5v3.3c2.4-3.2,6-5.1,10.8-5.1,8.6,0,14.6,7.2,14.6,16.5s-6,16.5-14.6,16.5-8.4-2-10.8-5.1v21.9c0,.5-.4.9-.9.9h-4.3c-.5,0-.9-.4-.9-.9v-47.8c0-.5.4-.9.9-.9h4.3c.5,0,.9.4.9.9"/>
  <path class="st0" d="M251.7,72.5v29.2c0,.5-.4.9-.9.9h-4.3c-.5,0-.9-.4-.9-.9v-29.2c0-.5.4-.9.9-.9h4.3c.5,0,.9.4.9.9M248.6,58.4c2.3,0,4.1,1.9,4.1,4.1s-1.8,4.1-4.1,4.1-4.1-1.8-4.1-4.1,1.8-4.1,4.1-4.1"/>
  <path class="st0" d="M270.2,98.1c4.4,0,7.7-3.4,7.7-8.6v-1.8l-6.8,1.1c-3.5.7-6.8,1.8-6.8,5s2.3,4.4,6,4.4M270.1,84l7.7-1.3v-1.3c0-3.1-2.3-5.5-6.8-5.5s-6.8,2.5-6.8,6.4,0,.6,0,.9l-5-.4c-.5,0-.8-.4-.8-.9,0-7.5,5.8-11.3,12.4-11.3s12.7,4.4,12.7,11.1v20c0,.5-.4.9-.9.9h-4c-.5,0-.9-.4-.9-.9v-3c-1.5,2.6-4.4,4.8-8.9,4.8-7.4,0-10.6-4.9-10.6-9.3,0-6,4.1-9.1,11.7-10.4"/>
  <path class="st0" d="M226.7,117.5c.6,0,1,.5,1,1s-.5,1.1-1,1.1-1.1-.5-1.1-1.1c0-.6.5-1,1.1-1"/>
  <path class="st0" d="M233.1,110.4c2,0,3.4,1.2,3.8,3l-1.4.4c-.2-1.2-1.1-2-2.4-2s-2.8,1.4-2.8,3.1,1.2,3.4,3,3.4,2.6-.9,2.7-2.4l1.4.3c-.2,2-1.9,3.5-4.1,3.5s-4.4-2-4.4-4.6c0-2.6,1.7-4.7,4.3-4.7"/>
  <path class="st0" d="M242.9,118.3c1.8,0,3-1.4,3-3.2s-1.3-3.3-3-3.3-3,1.4-3,3.3,1.3,3.2,3,3.2M242.9,110.4c2.7,0,4.5,2.1,4.5,4.7s-1.8,4.6-4.5,4.6-4.5-2-4.5-4.6c0-2.6,1.8-4.7,4.5-4.7"/>
  <path class="st0" d="M250.6,110.7v1.1c.5-.8,1.3-1.4,2.3-1.4s2,.6,2.4,1.6c.5-1,1.4-1.6,2.6-1.6s2.6,1,2.6,3v6s-1.4,0-1.4,0v-5.7c0-1.4-.5-2-1.6-2s-2,1-2,2.8v4.9s-1.4,0-1.4,0v-5.7c0-1.4-.5-2-1.6-2s-2,1-2,2.8v4.9h-1.4v-8.7h1.4Z"/>
  <path class="st0" d="M263.4,117.5c.6,0,1,.5,1,1s-.5,1.1-1,1.1-1.1-.5-1.1-1.1.5-1,1.1-1"/>
  <path class="st0" d="M269.2,118.3c1.4,0,2.4-1,2.4-2.7v-.6l-2.2.4c-1,.2-2,.6-2,1.5s.7,1.4,1.9,1.4M269.2,114.2l2.3-.4v-.4c0-1-.7-1.7-2.1-1.7s-2.1.8-2.1,2,0,.2,0,.3h-1.4v-.3c0-2.1,1.6-3.2,3.4-3.2s3.6,1.2,3.6,3.1v5.9h-1.4v-1.2c-.5.8-1.3,1.4-2.6,1.4-2.1,0-3-1.4-3-2.6,0-1.6,1.2-2.6,3.3-2.9"/>
  <path class="st0" d="M281.2,119.4v-1.1c-.6.8-1.6,1.4-2.9,1.4-1.9,0-3-1.3-3-3.3v-5.7h1.5v5.4c0,1.5.7,2.3,2,2.3s2.5-1.2,2.5-3v-4.7h1.5v8.7h-1.4Z"/>
  <path class="st0" d="M100.8,102.6h-4.5c-.4,0-.7-.3-.7-.7v-19.3c0-4.6-1.7-6.4-5.1-6.4s-6,2.7-6.3,8.2v17.5c.1.4-.2.7-.6.7h-4.4c-.4,0-.7-.3-.7-.7v-19.3c0-4.6-1.7-6.4-5.1-6.4s-6.3,3-6.3,9.1v16.6c0,.4-.3.7-.7.7h-4.5c-.4,0-.7-.3-.7-.7v-29.5c0-.4.3-.7.7-.7h4.5c.4,0,.7.3.7.7v2.9c1.7-2.8,4.4-4.6,8-4.6s7.1,1.9,8.4,5.5c1.7-3.4,4.7-5.5,8.9-5.5s9.1,3.4,9.1,10.5v20.8c.1.4-.2.7-.6.7Z"/>
  <path class="st0" d="M136.5,102c0,9.2-6.2,15.9-15.5,15.9s-14.1-4.8-14-12.7c0-.3.3-.6.6-.7l4.4-.6c.4,0,.8.3.8.7,0,5.2,3.6,7.9,8.2,7.9s9.4-4,9.4-10.3v-4.9c-2.2,2.8-5.5,4.6-10.1,4.7-6.9,0-11.1-4.6-11.1-12v-17.7c0-.4.3-.7.6-.7h4.7c.4,0,.7.3.7.7v16.5c0,5.1,2.3,7.7,6.9,7.7s8.2-3.8,8.2-9.9v-14.3c0-.4.3-.7.7-.7h4.7c.4,0,.7.3.7.7v29.7Z"/>
</svg>